<svg id="Layer_1" data-name="Layer 1" xmlns="http://www.w3.org/2000/svg" viewBox="0 0 79.77 50"><title>Artboard 4</title><path d="M50.92,35.24a8.71,8.71,0,0,0,.36,2.46H31.66A8.71,8.71,0,0,0,32,35.24,9,9,0,0,0,31.73,33H51.22A8.54,8.54,0,0,0,50.92,35.24Zm-21.16.11a6.5,6.5,0,1,1-6.5-6.5A6.51,6.51,0,0,1,29.76,35.35Zm-2.91,0a3.59,3.59,0,1,0-3.59,3.58A3.59,3.59,0,0,0,26.85,35.35ZM12.36,33a4.33,4.33,0,0,0,1.5,2l.68.43c0-.08,0-.15,0-.23A9,9,0,0,1,14.82,33Zm58.12-2.24H67.11a8.72,8.72,0,0,0-14.9,0H30.71a8.69,8.69,0,0,0-1.12-1.44l-.1-.14c-2.62-3.87-2.81-8.2-2.79-12.12,3.56,1.48,10.91,4.1,18.62,4.1h8.45s.34-.93-2.28-2.84c-6.69-4.9-9.67-7.28-18.11-7.28h-8a6,6,0,0,0-1,3V15.8c0,3.29,0,7.35,1.34,11.2a8.61,8.61,0,0,0-2.55-.4,8.74,8.74,0,0,0-7.45,4.19H12v-5C12,20.35,16,11.19,21,8.15H33.38c11.07,0,14.3,4.08,23.79,10.65,5.49.9,11.38,3.79,12.82,9.09A14.66,14.66,0,0,1,70.48,30.79ZM16.41,22.4a3.19,3.19,0,0,0-1.63-2.64,17.75,17.75,0,0,0-1.27,5.93A3.19,3.19,0,0,0,16.41,22.4Zm50.86,3.36c-1.57-2.25-4.92-4.2-9-5.26A11.31,11.31,0,0,0,67.27,25.76Zm-1.11,9.59a6.5,6.5,0,1,1-6.5-6.5A6.51,6.51,0,0,1,66.16,35.35Zm-2.92,0a3.59,3.59,0,1,0-3.58,3.58A3.59,3.59,0,0,0,63.24,35.35Zm5.18-.11a8.75,8.75,0,0,1-.28,2.13A6.38,6.38,0,0,0,70.4,33H68.12A8.54,8.54,0,0,1,68.42,35.24Z"/></svg>