<svg id="Layer_1" data-name="Layer 1" xmlns="http://www.w3.org/2000/svg" viewBox="0 0 80 50"><title>Artboard 1</title><path d="M79.59,32.32H69.76A8.71,8.71,0,0,1,70.18,35v2.93c.67-.07,2.56-.28,5.72-.79C78,36.77,78.66,34.94,79.59,32.32ZM55,34.93a6.43,6.43,0,1,0,6.43-6.43A6.44,6.44,0,0,0,55,34.93Zm3,0a3.4,3.4,0,1,1,3.39,3.39A3.4,3.4,0,0,1,58.07,34.93Zm-5.3,0v2.94l-29.95,0V35a8.71,8.71,0,0,0-.42-2.66H53.19A8.71,8.71,0,0,0,52.77,35ZM0,28.7V30H7a8.68,8.68,0,0,1,7.12-3.71c.2,0,.39,0,.58,0A8.93,8.93,0,0,1,14.08,23V20.22l-2.75-2.65a40.37,40.37,0,0,1,20.23-5.84v8.64H16.41V23a4.91,4.91,0,0,0,2.41,4.63l0,0A8.73,8.73,0,0,1,21.24,30H34.57V21h0V11.7c7.47.17,14.11,3.24,21.4,7.1v0c0,.61.09,1.55-1.8,1.55H36.9V30H54.35A8.7,8.7,0,0,1,68.6,30H80v-.76a4.17,4.17,0,0,0-1.62-3.79c-2.26-1.75-7-5.13-18-7.72-9.08-4.88-17-9.07-26.44-9.07-13.09,0-20,3.93-25,6.79-.72.41-1.41.81-2.07,1.17l-.07,0H6.05c-1.84,0-2.62,1.12-2.18,2.5A10.67,10.67,0,0,0,1,26.21v.11A2.59,2.59,0,0,0,0,28.7Zm65.22-8c4.24.65,10.82,4.56,12.17,5.81h-3c-2.55,0-3.34-.24-4.66-1-2.14-1.23-2.76-1.57-4.94-3C63.35,21.64,63.7,20.51,65.22,20.74ZM2.65,26.25a9,9,0,0,1,2.39-6l1,.77L4,26.25ZM5.41,35v1c-1.76-.53-3.34-1-3.84-1.18A2,2,0,0,1,0,33v-.7H5.83A8.71,8.71,0,0,0,5.41,35Zm2.26,0A6.43,6.43,0,1,0,14.1,28.5,6.43,6.43,0,0,0,7.67,34.93Zm3,0a3.4,3.4,0,1,1,3.4,3.39A3.4,3.4,0,0,1,10.7,34.93Z"/></svg>