<svg id="Layer_1" data-name="Layer 1" xmlns="http://www.w3.org/2000/svg" viewBox="0 0 79.77 50"><title>Artboard 5</title><path d="M55.5,32.43v2.76H25.9V32.43c0-.08,0-.17,0-.25l29.62,0C55.51,32.28,55.5,32.35,55.5,32.43ZM8.78,32.16H4.1a8.52,8.52,0,0,0,4.68,2.76l0-2.49A2.45,2.45,0,0,1,8.78,32.16Zm63.85.05c0,.07,0,.15,0,.22l0,2.65c4.31-.39,5.93-1.73,6.65-2.87Zm-48.92.22a6.38,6.38,0,1,1-6.38-6.38A6.38,6.38,0,0,1,23.71,32.43Zm-2.84,0A3.54,3.54,0,1,0,17.33,36,3.54,3.54,0,0,0,20.87,32.43Zm49.58,0a6.38,6.38,0,1,1-6.38-6.38A6.38,6.38,0,0,1,70.45,32.43Zm-2.85,0A3.54,3.54,0,1,0,64.07,36,3.54,3.54,0,0,0,67.6,32.43Zm12.16-2.58c0-5.18-9.29-10.25-25.67-9.21,0,0-6.11-2.79-14.5-6.34C28.92,9.79,13.16,15.14,0,18.1.61,21,.74,26.18,3,30H9.13a8.56,8.56,0,0,1,16.41,0h3c-2.22-3.67-2.29-8.25-2.29-11h0V15.39a35.09,35.09,0,0,1,4-.27,22.49,22.49,0,0,1,8.44,1.63l8.82,3.81c-8-.19-14.08-.72-19.09-1.3,0,3,.16,7.6,2.79,10.73l24.63,0a8.57,8.57,0,0,1,16.44,0h7.48A1.33,1.33,0,0,0,79.76,29.85ZM23.39,18.63c-3.14-.42-5.88-.81-8.51-1.06,2.91-.63,5.77-1.28,8.51-1.76Zm53.52,8.56a8,8,0,0,1-6.73-3.67A15,15,0,0,1,77,27.18Z"/></svg>