<svg id="Layer_1" data-name="Layer 1" xmlns="http://www.w3.org/2000/svg" viewBox="0 0 80 50"><title>Artboard 2</title><path d="M64.34,24.88a10.06,10.06,0,0,0-5.27,1.5H29.56v-9.9a37.72,37.72,0,0,1,1.29-9.25l12.62,0c7.65,0,11.63,4.33,16.06,8.22,0,0,6.65,1,11.94,2,3.83.69,5.47,1.41,6,4.16l.85,4.74H69.61A10,10,0,0,0,64.34,24.88ZM39.43,10.21h-6.2a38.41,38.41,0,0,0-.7,6.13h6.9Zm4,0H42.39v6.12H56C52.36,13,49.12,10.21,43.46,10.21ZM76.15,23.43l-.26-1.49a2.34,2.34,0,0,0-1.38-2H68.74c-.78,0-.94.55-.44,1.1a11.92,11.92,0,0,0,1.09,1.22c1.21,1.17,3.07,1.16,5.39,1.16Zm3.08,5.23h-7A10.09,10.09,0,0,1,74.43,35v.77l3.56-1c1.78-.54,2-1.48,2-2.9,0-.42,0-1.47,0-1.47A2.17,2.17,0,0,0,79.23,28.66Zm-64-3.78A10,10,0,0,0,10,26.38H1V24.26c0-1.69-.33-5.94,1.29-8H27.31V26.38H20.52A10.06,10.06,0,0,0,15.25,24.88ZM3.51,19.54H2.69a14.69,14.69,0,0,0-.15,1.64v3.68H4.76c0-.38,0-1.63,0-2.71C4.75,20.9,5,19.54,3.51,19.54ZM13.77,35a1.48,1.48,0,1,0,1.48-1.48A1.48,1.48,0,0,0,13.77,35Zm1.48-7.8A7.8,7.8,0,1,1,7.45,35,7.81,7.81,0,0,1,15.25,27.17Zm0,12.1A4.31,4.31,0,1,0,11,35,4.31,4.31,0,0,0,15.25,39.27ZM0,30.28v2.24c0,2.18,1.93,2.41,5.15,3.25V35a10,10,0,0,1,2.23-6.31H.85A2,2,0,0,0,0,30.28Zm56.48-1.62H23.11A10,10,0,0,1,25.34,35v.8l28.9,0V35A10,10,0,0,1,56.48,28.66ZM62.86,35a1.48,1.48,0,1,0,1.48-1.48A1.48,1.48,0,0,0,62.86,35Zm1.48-7.8a7.8,7.8,0,1,1-7.8,7.8A7.81,7.81,0,0,1,64.34,27.17Zm0,12.1A4.31,4.31,0,1,0,60,35,4.31,4.31,0,0,0,64.34,39.27Z"/></svg>