<svg id="Layer_1" data-name="Layer 1" xmlns="http://www.w3.org/2000/svg" viewBox="0 0 80.03 50"><title>Artboard 3</title><path d="M3.92,7.74s34.91-1.32,39-1.32c8.57,0,12.26,2,16,5s5.66,4.58,8,6.67c2.87,1.12,5,2,8.2,3.44,2.85,1.29,3.77,3.72,3.93,6.93H67.8a9.28,9.28,0,0,0-12.93,4H40.93v-23c-3.33.09-9.82.31-16.45.54v8c4.37.12,8.78.29,14.18.59v14H24.89a9.35,9.35,0,0,0-3.35-3.73V10l-16.17.6A13.14,13.14,0,0,0,4,15l3,2.51c4.71.13,8.65.2,12.37.29v9.88a9.44,9.44,0,0,0-2.73-.4,9.3,9.3,0,0,0-8.33,5.19H.64C.07,23.6,0,11.71,3.92,7.74ZM72.55,25.3c2.4.55,4,1,4,1a4.06,4.06,0,0,0-2.34-3,30.33,30.33,0,0,0-4.78-1.91S70.88,24.91,72.55,25.3ZM43.88,18.8c5.72.37,12.56.9,21.33,1.66l-.2-.17c-2.33-2.05-4.19-3.62-7.92-6.58-3-2.36-5.89-4.18-13.21-4.33ZM2.75,30.4l1.74-1.3a77.54,77.54,0,0,1,.16-10.79L3,16.89A76.52,76.52,0,0,0,2.75,30.4Zm67.5,6.13a7,7,0,1,1-7-7A7.05,7.05,0,0,1,70.25,36.53Zm-7,4.11a4.11,4.11,0,1,0-4.11-4.11,4.11,4.11,0,0,0,4.11,4.11Zm-9.12-6H25.67a9.44,9.44,0,0,1,.19,1.85v1.65h28V36.53A9.44,9.44,0,0,1,54.09,34.68Zm18.42,3.38a24.44,24.44,0,0,0,6.18-1.88c1.49-.67,1.33-2.41,1.33-4.35l-.47-1.12h-9.1a9.23,9.23,0,0,1,2.06,5.82ZM0,35.43c0,1.89,1.86,2,4.17,2.76h3.1V36.53a8.73,8.73,0,0,1,.19-1.85H.79Zm23.62,1.1a7,7,0,1,1-7-7A7.05,7.05,0,0,1,23.6,36.53Zm-7,4.11a4.11,4.11,0,1,0-4.1-4.11,4.11,4.11,0,0,0,4.1,4.11Z"/></svg>